<?xml version="1.0" encoding="utf-8"?>
<!-- Generator: Adobe Illustrator 18.0.0, SVG Export Plug-In . SVG Version: 6.00 Build 0)  -->
<!DOCTYPE svg PUBLIC "-//W3C//DTD SVG 1.1//EN" "http://www.w3.org/Graphics/SVG/1.1/DTD/svg11.dtd">
<svg version="1.1"
	 id="Calque_1" xmlns:rdf="http://www.w3.org/1999/02/22-rdf-syntax-ns#" xmlns:cc="http://creativecommons.org/ns#" xmlns:svg="http://www.w3.org/2000/svg" xmlns:dc="http://purl.org/dc/elements/1.1/"
	 xmlns="http://www.w3.org/2000/svg" xmlns:xlink="http://www.w3.org/1999/xlink" x="0px" y="0px" viewBox="615 375 50 50"
	 enable-background="new 615 375 50 50" xml:space="preserve">
<g transform="translate(0,-952.36216)">
	<path d="M616.5,1327.4c-0.8,0-1.5,0.7-1.5,1.5v11.8c0,0.8,0.7,1.5,1.5,1.5h11.8c0.8,0,1.5-0.7,1.5-1.5v-11.8c0-0.8-0.7-1.5-1.5-1.5
		H616.5z M634.1,1327.4c-0.8,0-1.5,0.7-1.5,1.5v11.8c0,0.8,0.7,1.5,1.5,1.5h11.8c0.8,0,1.5-0.7,1.5-1.5v-11.8c0-0.8-0.7-1.5-1.5-1.5
		H634.1z M651.8,1327.4c-0.8,0-1.5,0.7-1.5,1.5v11.8c0,0.8,0.7,1.5,1.5,1.5h11.8c0.8,0,1.5-0.7,1.5-1.5v-11.8c0-0.8-0.7-1.5-1.5-1.5
		H651.8z M617.9,1330.3h8.8v8.8h-8.8V1330.3z M635.6,1330.3h8.8v8.8h-8.8V1330.3z M653.2,1330.3h8.8v8.8h-8.8V1330.3z M616.5,1345
		c-0.8,0-1.5,0.7-1.5,1.5v11.8c0,0.8,0.7,1.5,1.5,1.5h11.8c0.8,0,1.5-0.7,1.5-1.5v-11.8c0-0.8-0.7-1.5-1.5-1.5H616.5z M634.1,1345
		c-0.8,0-1.5,0.7-1.5,1.5v11.8c0,0.8,0.7,1.5,1.5,1.5h11.8c0.8,0,1.5-0.7,1.5-1.5v-11.8c0-0.8-0.7-1.5-1.5-1.5H634.1z M651.8,1345
		c-0.8,0-1.5,0.7-1.5,1.5v11.8c0,0.8,0.7,1.5,1.5,1.5h11.8c0.8,0,1.5-0.7,1.5-1.5v-11.8c0-0.8-0.7-1.5-1.5-1.5H651.8z M617.9,1348
		h8.8v8.8h-8.8V1348z M635.6,1348h8.8v8.8h-8.8V1348z M653.2,1348h8.8v8.8h-8.8V1348z M616.5,1362.7c-0.8,0-1.5,0.7-1.5,1.5v11.8
		c0,0.8,0.7,1.5,1.5,1.5h11.8c0.8,0,1.5-0.7,1.5-1.5v-11.8c0-0.8-0.7-1.5-1.5-1.5H616.5z M634.1,1362.7c-0.8,0-1.5,0.7-1.5,1.5v11.8
		c0,0.8,0.7,1.5,1.5,1.5h11.8c0.8,0,1.5-0.7,1.5-1.5v-11.8c0-0.8-0.7-1.5-1.5-1.5H634.1z M651.8,1362.7c-0.8,0-1.5,0.7-1.5,1.5v11.8
		c0,0.8,0.7,1.5,1.5,1.5h11.8c0.8,0,1.5-0.7,1.5-1.5v-11.8c0-0.8-0.7-1.5-1.5-1.5H651.8z M617.9,1365.6h8.8v8.8h-8.8V1365.6z
		 M635.6,1365.6h8.8v8.8h-8.8V1365.6z M653.2,1365.6h8.8v8.8h-8.8V1365.6z"/>
</g>
</svg>
