<?xml version="1.0" encoding="utf-8"?>
<!-- Generator: Adobe Illustrator 18.0.0, SVG Export Plug-In . SVG Version: 6.00 Build 0)  -->
<!DOCTYPE svg PUBLIC "-//W3C//DTD SVG 1.1//EN" "http://www.w3.org/Graphics/SVG/1.1/DTD/svg11.dtd">
<svg version="1.1" id="Calque_1" xmlns="http://www.w3.org/2000/svg" xmlns:xlink="http://www.w3.org/1999/xlink" x="0px" y="0px"
	 viewBox="29.1 220.9 1280.2 590.3" enable-background="new 29.1 220.9 1280.2 590.3" xml:space="preserve">
<path d="M29.1,220.9h116.7c45.1,0,76,24.3,76,65.4c0,30.3-11.2,52.6-41.2,58.3v0.8c37.8,3.9,58.9,35.2,58.9,67.9
	c0,68.7-44,82.2-101.1,82.2H29.1V220.9z M80.9,331.3h53.9c22.8,0,38.6-8.8,38.6-35.2c0-20.8-8.5-34.3-38.6-34.3H80.9V331.3z
	 M80.9,449.9h59.6c31.3,0,45.1-9.6,45.1-38.1c0-30.8-14.3-42-45.6-42H80.9V449.9z"/>
<path d="M29.1,532.1h109.1c64.5,0,96,39.4,96,92.5c0,54.4-38.3,89.5-92.5,89.5H80.9v92.6H29.1V532.1z M80.9,671h51.3
	c32.4,0,48.2-19.2,48.2-46.2c0-38.3-20.5-49.3-50.1-49.3H80.9V671z"/>
</svg>
