<?xml version="1.0" encoding="utf-8"?>
<!-- Generator: Adobe Illustrator 18.0.0, SVG Export Plug-In . SVG Version: 6.00 Build 0)  -->
<!DOCTYPE svg PUBLIC "-//W3C//DTD SVG 1.1//EN" "http://www.w3.org/Graphics/SVG/1.1/DTD/svg11.dtd">
<svg version="1.1" id="Calque_1" xmlns="http://www.w3.org/2000/svg" xmlns:xlink="http://www.w3.org/1999/xlink" x="0px" y="0px"
	 viewBox="29.1 220.9 1280.2 590.3" enable-background="new 29.1 220.9 1280.2 590.3" xml:space="preserve">
<path d="M29.1,220.9h116.7c45.1,0,76,24.3,76,65.4c0,30.3-11.2,52.6-41.2,58.3v0.8c37.8,3.9,58.9,35.2,58.9,67.9
	c0,68.7-44,82.2-101.1,82.2H29.1V220.9z M80.9,331.3h53.9c22.8,0,38.6-8.8,38.6-35.2c0-20.8-8.5-34.3-38.6-34.3H80.9V331.3z
	 M80.9,449.9h59.6c31.3,0,45.1-9.6,45.1-38.1c0-30.8-14.3-42-45.6-42H80.9V449.9z"/>
<path d="M462.9,398c0,58.3-36.6,102.2-99.8,102.2s-100-44-100-102.2s36.6-102.2,100-102.2C426.3,295.9,462.9,339.9,462.9,398
	 M312.5,398c0,30.4,16.9,58.9,50.5,58.9s50.5-28.5,50.5-58.9c0-30.4-16.9-58.9-50.5-58.9C329.4,339.1,312.5,367.6,312.5,398"/>
<path d="M490.9,300.3h47.7v19.2h0.8c14-16.9,34.8-23.9,53.9-23.9c46.9,0,68,23.6,68,66.3v133.5h-47.7V376.2
	c0-17.7-8.1-35.2-32.9-35.2c-23.1,0-42.2,15.5-42.2,51.3v102.9h-47.7V300.3z"/>
<path d="M833.4,362c-5.9-12.7-21.2-27.8-49-27.8c-22-0.3-35.8,7.3-35.8,18.9c0,33.9,123.1,5,123.1,78.6c0,47-42,68.2-86.8,68.2
	c-45.9,0-77.2-15.8-94.4-35.5l35.5-27.3c10.7,15.8,31.3,24.3,56.3,24.3c22.3,0,37.8-12.4,37.8-22.8c0-33.2-120.6-5.9-120.6-79.8
	c0-44,38.1-63.2,86.4-63.2c46.7,0,71.3,23.9,80.6,35.5L833.4,362z"/>
<path d="M1093.2,398c0,58.3-36.6,102.2-99.8,102.2s-99.8-44-99.8-102.2s36.6-102.2,99.8-102.2C1056.6,295.9,1093.2,339.9,1093.2,398
	 M942.8,398c0,30.4,16.9,58.9,50.5,58.9c33.5,0,50.5-28.5,50.5-58.9c0-30.4-16.9-58.9-50.5-58.9C959.8,339.1,942.8,367.6,942.8,398"
	/>
<path d="M1201.2,300.3h47v27h0.8c11.2-22.3,32.7-31.6,60.2-31.6v47.9c-32.1,0-60.9,15-60.9,57.5v94.4h-47L1201.2,300.3L1201.2,300.3
	z"/>
<path d="M29.1,532.1h109.1c64.5,0,96,39.4,96,92.5c0,54.4-38.3,89.5-92.5,89.5H80.9v92.6H29.1V532.1z M80.9,671h51.3
	c32.4,0,48.2-19.2,48.2-46.2c0-38.3-20.5-49.3-50.1-49.3H80.9V671z"/>
<path d="M490.9,611.6h47.5v27h0.8c12.7-15.3,29.8-27,57.1-27v47.9c-32.1,0-58,10.4-58,52.9v94.4h-47.5V611.6z"/>
<rect x="613.7" y="611.6" width="47.7" height="195.2"/>
<path d="M402.4,611.6v16.9c-12.4-19-36.6-23.9-57.3-23.9c-63.2,0-95.4,48.8-95.4,102.2S281.9,809,345.1,809
	c20.5,0,43.1-5.2,57.3-25.2v23h47V611.6H402.4z M351.6,765.9c-34.8,0-52.4-28.5-52.4-58.9c0-30.4,17.6-58.9,52.4-58.9
	s52.6,28.5,52.6,58.9C404.2,737.2,386.4,765.9,351.6,765.9"/>
<path d="M833.4,673.3c-5.9-12.7-21.2-27.8-49-27.8c-22-0.3-35.8,7.3-35.8,18.9c0,33.9,123.1,5,123.1,78.6c0,47-42,68.2-86.8,68.2
	c-45.9,0-77.2-15.8-94.4-35.5l35.5-27.3c10.7,15.8,31.3,24.3,56.3,24.3c22.3,0,37.8-12.4,37.8-22.8c0-33.2-120.6-5.9-120.6-79.8
	c0-44,38.1-63.2,86.4-63.2c46.7,0,71.3,23.9,80.6,35.5L833.4,673.3z"/>
<rect x="1123.7" y="300.5" width="47" height="195.2"/>
</svg>
